<svg xmlns="http://www.w3.org/2000/svg" viewBox="0 0 1924.15 180.23"><defs><style>.d{fill:#fff;}.e{fill:#3bd111;}</style></defs><g id="a"></g><g id="b"><g id="c"><g><polygon class="d" points="318.92 175.63 316.16 180.23 305.09 180.23 318.92 175.63"></polygon><polygon class="e" points="343.52 150.43 237.49 180.23 139.75 180.23 55.36 69.85 343.52 150.43"></polygon><polygon class="d" points="108.39 180.23 0 180.23 0 28.36 108.39 180.23"></polygon><polygon class="e" points="686.35 180.23 585.97 180.23 575.45 83.83 686.35 180.23"></polygon><polygon class="d" points="562.01 180.23 427.83 180.23 376.83 154.73 550.88 83.82 562.01 180.23"></polygon><polygon class="d" points="961.29 109.61 938.31 180.23 724.64 180.23 961.29 109.61"></polygon><polygon class="e" points="375.8 180.23 368.2 180.23 366.73 175.55 375.8 180.23"></polygon><polygon class="e" points="1200.88 133.24 1139.16 180.23 956.11 180.23 965.79 150.89 1200.88 133.24"></polygon><polygon class="d" points="1218.25 146.06 1210.17 180.23 1172.47 180.23 1218.25 146.06"></polygon><polygon class="e" points="1921.69 180.23 1864.51 180.23 1898.15 103.24 1921.69 180.23"></polygon><polygon class="d" points="1648.7 59.82 1616.44 180.23 1528.69 180.23 1515.13 137.38 1648.7 59.82"></polygon><polygon class="d" points="1924.15 0 1841.67 180.23 1775.1 180.23 1704.18 55.91 1924.15 0"></polygon><polygon class="e" points="1737.75 180.23 1644.12 180.23 1672.55 70.42 1737.75 180.23"></polygon><polygon class="e" points="1499.04 180.23 1459.78 180.23 1482.88 127.37 1499.04 180.23"></polygon><polygon class="d" points="1468.56 120.72 1439.77 180.23 1346.06 180.23 1288.91 80.03 1468.56 120.72"></polygon><polygon class="e" points="1308.16 180.23 1235.1 180.23 1257.28 94.54 1308.16 180.23"></polygon></g></g></g></svg>