<svg xmlns="http://www.w3.org/2000/svg" viewBox="0 0 297.11 79.13"><defs><style>.d{fill:#fff;}.e{fill:#5db130;fill-rule:evenodd;}</style></defs><g id="a"></g><g id="b"><g id="c"><g><path class="d" d="M0,39.05V8.24H12.13v30.81H0Z"></path><path class="d" d="M21.34,39.19V8.38h8.28l36.68,18.14c1.25,.62,2.35,1.2,3.3,1.73,.95,.53,1.82,1.07,2.61,1.63-.2-1.71-.33-2.92-.39-3.65-.07-.72-.1-1.28-.1-1.68V8.38h10.9v30.81h-8.28L36.09,20.17c-.92-.49-1.73-.94-2.42-1.33-.69-.39-1.33-.79-1.92-1.18,.16,.95,.29,1.85,.37,2.69,.08,.84,.12,1.57,.12,2.19v16.66h-10.9Z"></path><path class="d" d="M91.65,15.68c0-2.79,.89-4.71,2.66-5.74,1.77-1.03,5.19-1.55,10.25-1.55h38.36c5.06,0,8.48,.52,10.25,1.55,1.78,1.04,2.66,2.95,2.66,5.74V31.9c0,2.83-.89,4.75-2.66,5.77-1.77,1.02-5.19,1.53-10.25,1.53h-38.36c-5.06,0-8.48-.51-10.25-1.53-1.77-1.02-2.66-2.94-2.66-5.77V15.68Zm12.13,17.75h39.98V13.9h-39.98v19.52Z"></path><path class="d" d="M217.85,0l.1,10.21-2.51-.1v29.24l-31.55-.05v-4.93h21.15l-.05-22.83c-33.81,7.27-41.24,40.8-34.07,67.59C153.37,49.73,167.64-.27,217.85,0Z"></path></g><path class="e" d="M69.32,49.86c2.22-.27,5.78,0,8.71,0h4.36c1.38,0,3.47-.22,3.94,.21,.51,.47,.28,3.48,.28,4.36v9.26c0,1.16,.31,3.77-.28,4.29-.6,.53-3.2,.21-4.35,.21h-9.13c-1.38,0-3.74,.27-4.29-.21-.47-.41-.28-3.23-.28-4.29v-9.13c0-.56-.24-3.78,.14-4.35,.21-.31,.63-.31,.9-.35Z"></path><path class="e" d="M121.86,49.87c2.41-.31,5.77,0,8.64,0h4.29c1.07,0,3.5-.3,4.08,.21,.49,.43,.28,3.28,.28,4.36v9.26c0,1.25,.26,3.82-.35,4.29-.7,.55-3.22,.21-4.35,.21h-9.13c-1.19,0-3.81,.26-4.29-.28-.41-.47-.21-3.31-.21-4.35v-8.99c0-.57-.24-3.78,.14-4.36,.18-.27,.59-.31,.9-.35Z"></path><path class="e" d="M9.17,49.91c.97-.3,3.19-.07,4.49-.07h10.92c.45,0,1.56-.12,1.94,.21,.53,.47,.28,3.41,.28,4.35v9.26c0,1.01,.31,3.77-.28,4.29-.63,.55-3.32,.21-4.42,.21H12.98c-1.05,0-3.76,.33-4.29-.28-.49-.57-.21-3.55-.21-4.49v-9.33c0-1.1-.4-3.82,.69-4.15Z"></path><g><path class="d" d="M182.28,55.36h-7.39v2.36h7.04c1.1,0,1.85,.18,2.24,.54,.39,.36,.58,1.04,.58,2.03v1.51c0,.99-.19,1.67-.58,2.04s-1.13,.55-2.24,.55h-6.97c-1.1,0-1.85-.18-2.24-.55s-.58-1.05-.58-2.04v-.3l2.32-.47v1.29h7.98v-2.49h-7.04c-1.1,0-1.84-.18-2.22-.55-.38-.37-.58-1.05-.58-2.04v-1.21c0-.99,.19-1.67,.58-2.04,.38-.37,1.12-.55,2.22-.55h6.41c1.06,0,1.79,.17,2.19,.52,.4,.35,.6,.97,.6,1.87v.23l-2.32,.53v-1.24Z"></path><path class="d" d="M187.22,55.98c0-.99,.19-1.67,.58-2.04,.38-.37,1.12-.55,2.22-.55h8.31c1.1,0,1.84,.18,2.22,.55,.38,.37,.58,1.05,.58,2.04v5.76c0,1-.19,1.69-.58,2.05-.38,.36-1.12,.54-2.22,.54h-8.31c-1.1,0-1.84-.18-2.22-.54-.38-.36-.58-1.04-.58-2.05v-5.76Zm2.63,6.3h8.66v-6.93h-8.66v6.93Z"></path><path class="d" d="M203.46,64.34v-10.94h2.63v8.89h8.47v2.05h-11.09Z"></path><path class="d" d="M220.21,53.38v8.88h7.49v-8.88h2.62v8.35c0,1-.19,1.69-.58,2.05-.38,.36-1.12,.54-2.22,.54h-7.13c-1.09,0-1.83-.18-2.22-.54-.39-.36-.58-1.04-.58-2.05v-8.35h2.63Z"></path><path class="d" d="M239.93,55.42v8.98h-2.63v-8.98h-5.18v-1.96h13.01v1.96h-5.2Z"></path><path class="d" d="M247.08,64.27v-10.94h2.63v10.94h-2.63Z"></path><path class="d" d="M252.04,55.98c0-.99,.19-1.67,.58-2.04,.38-.37,1.12-.55,2.22-.55h8.31c1.1,0,1.84,.18,2.22,.55,.38,.37,.58,1.05,.58,2.04v5.76c0,1-.19,1.69-.58,2.05-.38,.36-1.12,.54-2.22,.54h-8.31c-1.1,0-1.84-.18-2.22-.54-.38-.36-.58-1.04-.58-2.05v-5.76Zm2.63,6.3h8.66v-6.93h-8.66v6.93Z"></path><path class="d" d="M268.1,64.33v-10.94h1.79l7.94,6.44c.27,.22,.51,.43,.72,.61,.21,.19,.4,.38,.57,.58-.04-.61-.07-1.04-.09-1.29-.01-.26-.02-.46-.02-.6v-5.74h2.36v10.94h-1.79l-8.29-6.76c-.2-.18-.37-.33-.52-.47-.15-.14-.29-.28-.42-.42,.04,.34,.06,.66,.08,.95,.02,.3,.03,.56,.03,.78v5.92h-2.36Z"></path><path class="d" d="M294.64,55.36h-7.39v2.36h7.04c1.1,0,1.85,.18,2.24,.54,.39,.36,.58,1.04,.58,2.03v1.51c0,.99-.19,1.67-.58,2.04-.39,.37-1.13,.55-2.24,.55h-6.97c-1.1,0-1.85-.18-2.24-.55s-.58-1.05-.58-2.04v-.3l2.32-.47v1.29h7.98v-2.49h-7.04c-1.1,0-1.84-.18-2.22-.55-.38-.37-.58-1.05-.58-2.04v-1.21c0-.99,.19-1.67,.58-2.04,.38-.37,1.12-.55,2.22-.55h6.41c1.06,0,1.79,.17,2.19,.52,.4,.35,.6,.97,.6,1.87v.23l-2.32,.53v-1.24Z"></path></g></g></g></svg>