<svg xmlns="http://www.w3.org/2000/svg" viewBox="0 0 1919.96 155.83"><defs><style>.d{fill:#fff;}.e{fill:#3bd111;}</style></defs><g id="a"></g><g id="b"><g id="c"><g><polygon class="d" points="301.05 45.43 270.44 0 295.54 0 301.05 45.43"></polygon><polygon class="d" points="265.22 80.38 93.07 155.83 3.73 37.52 0 32.58 3.73 33.25 265.22 80.38"></polygon><polygon class="e" points="280.93 55.62 6.35 8.53 17.33 0 243.3 0 280.93 55.62"></polygon><polygon class="d" points="745.82 0 518.13 142.04 597.7 0 745.82 0"></polygon><polygon class="d" points="471.57 122.4 338.65 0 436.94 0 471.57 122.4"></polygon><polygon class="e" points="571.23 0 500.26 127.24 463.16 0 571.23 0"></polygon><polygon class="e" points="994.15 0 903.3 74.74 926.12 0 994.15 0"></polygon><polygon class="d" points="1170.89 0 1162.81 36.92 976.47 36.92 1022.24 0 1170.89 0"></polygon><polygon class="d" points="1864.62 93.39 1563.89 82.04 1714.11 0 1770.63 0 1864.62 93.39"></polygon><polygon class="e" points="1919.96 122.53 1803.29 0 1885.29 0 1919.96 122.53"></polygon><polygon class="d" points="1543.63 0 1534.03 38.72 1522.69 0 1543.63 0"></polygon><polygon class="e" points="1663.99 0 1556 59.26 1570.2 0 1663.99 0"></polygon><polygon class="d" points="1179.57 106.17 1366.26 4.2 1480.3 117.51 1179.57 106.17"></polygon><polygon class="e" points="1535.64 146.66 1396 0 1494.14 0 1535.64 146.66"></polygon><polygon class="e" points="1323.62 0 1171.67 83.38 1191.65 0 1323.62 0"></polygon></g></g></g></svg>